<svg xmlns="http://www.w3.org/2000/svg"
     width="24" height="24" viewBox="0 0 24 24"
     fill="none" stroke="currentColor" stroke-width="2"
     stroke-linecap="round" stroke-linejoin="round"
     aria-hidden="true" role="img">
  <!-- Außenring + Zähne -->
  <path d="M19.4 12.9c.04-.3.06-.6.06-.9s-.02-.6-.06-.9l2.1-1.6a.5.5 0 0 0 .12-.64l-2-3.46a.5.5 0 0 0-.61-.22l-2.5 1
           a7 7 0 0 0-1.56-.9l-.38-2.65a.5.5 0 0 0-.5-.42h-4a.5.5 0 0 0-.5.42l-.38 2.65c-.57.22-1.1.52-1.56.9l-2.5-1
           a.5.5 0 0 0-.61.22l-2 3.46a.5.5 0 0 0 .12.64l2.1 1.6c-.04.3-.06.6-.06.9s.02.6.06.9l-2.1 1.6a.5.5 0 0 0-.12.64l2 3.46
           a.5.5 0 0 0 .61.22l2.5-1c.46.38.99.68 1.56.9l.38 2.65a.5.5 0 0 0 .5.42h4c.25 0 .46-.18.5-.42l.38-2.65
           c.57-.22 1.1-.52 1.56-.9l2.5 1a.5.5 0 0 0 .61-.22l2-3.46a.5.5 0 0 0-.12-.64l-2.1-1.6z"/>
  <!-- Innenkreis -->
  <circle cx="12" cy="12" r="3"/>
</svg>
